<svg width="181" height="55" viewBox="0 0 181 55" fill="none" xmlns="http://www.w3.org/2000/svg">
<path d="M1.845 10.5H6.795V23.325H12.105V10.5H17.055V42H12.105V27.825H6.795V42H1.845V10.5ZM22.9915 10.5H36.4915V15H27.9415V23.325H34.7365V27.825H27.9415V37.5H36.4915V42H22.9915V10.5ZM45.4141 10.5H52.1191L57.2491 42H52.2991L51.3991 35.745V35.835H45.7741L44.8741 42H40.2841L45.4141 10.5ZM50.8141 31.56L48.6091 15.99H48.5191L46.3591 31.56H50.8141ZM61.9007 10.5H66.8507V37.5H74.9957V42H61.9007V10.5ZM79.9738 15H74.7988V10.5H90.0988V15H84.9238V42H79.9738V15ZM94.7454 10.5H99.6954V23.325H105.005V10.5H109.955V42H105.005V27.825H99.6954V42H94.7454V10.5ZM115.892 10.5H120.842V42H115.892V10.5ZM126.799 10.5H140.299V15H131.749V23.325H138.544V27.825H131.749V37.5H140.299V42H126.799V10.5ZM151.92 42.45C149.52 42.45 147.705 41.775 146.475 40.425C145.245 39.045 144.63 37.08 144.63 34.53V32.73H149.31V34.89C149.31 36.93 150.165 37.95 151.875 37.95C152.715 37.95 153.345 37.71 153.765 37.23C154.215 36.72 154.44 35.91 154.44 34.8C154.44 33.48 154.14 32.325 153.54 31.335C152.94 30.315 151.83 29.1 150.21 27.69C148.17 25.89 146.745 24.27 145.935 22.83C145.125 21.36 144.72 19.71 144.72 17.88C144.72 15.39 145.35 13.47 146.61 12.12C147.87 10.74 149.7 10.05 152.1 10.05C154.47 10.05 156.255 10.74 157.455 12.12C158.685 13.47 159.3 15.42 159.3 17.97V19.275H154.62V17.655C154.62 16.575 154.41 15.795 153.99 15.315C153.57 14.805 152.955 14.55 152.145 14.55C150.495 14.55 149.67 15.555 149.67 17.565C149.67 18.705 149.97 19.77 150.57 20.76C151.2 21.75 152.325 22.95 153.945 24.36C156.015 26.16 157.44 27.795 158.22 29.265C159 30.735 159.39 32.46 159.39 34.44C159.39 37.02 158.745 39 157.455 40.38C156.195 41.76 154.35 42.45 151.92 42.45ZM168.348 15H163.173V10.5H178.473V15H173.298V42H168.348V15Z" fill="white"/>
<path d="M1.845 10.5V9.5H0.845V10.5H1.845ZM6.795 10.5H7.795V9.5H6.795V10.5ZM6.795 23.325H5.795V24.325H6.795V23.325ZM12.105 23.325V24.325H13.105V23.325H12.105ZM12.105 10.5V9.5H11.105V10.5H12.105ZM17.055 10.5H18.055V9.5H17.055V10.5ZM17.055 42V43H18.055V42H17.055ZM12.105 42H11.105V43H12.105V42ZM12.105 27.825H13.105V26.825H12.105V27.825ZM6.795 27.825V26.825H5.795V27.825H6.795ZM6.795 42V43H7.795V42H6.795ZM1.845 42H0.845V43H1.845V42ZM1.845 11.5H6.795V9.5H1.845V11.5ZM5.795 10.5V23.325H7.795V10.5H5.795ZM6.795 24.325H12.105V22.325H6.795V24.325ZM13.105 23.325V10.5H11.105V23.325H13.105ZM12.105 11.5H17.055V9.5H12.105V11.5ZM16.055 10.5V42H18.055V10.5H16.055ZM17.055 41H12.105V43H17.055V41ZM13.105 42V27.825H11.105V42H13.105ZM12.105 26.825H6.795V28.825H12.105V26.825ZM5.795 27.825V42H7.795V27.825H5.795ZM6.795 41H1.845V43H6.795V41ZM2.845 42V10.5H0.845V42H2.845ZM22.9915 10.5V9.5H21.9915V10.5H22.9915ZM36.4915 10.5H37.4915V9.5H36.4915V10.5ZM36.4915 15V16H37.4915V15H36.4915ZM27.9415 15V14H26.9415V15H27.9415ZM27.9415 23.325H26.9415V24.325H27.9415V23.325ZM34.7365 23.325H35.7365V22.325H34.7365V23.325ZM34.7365 27.825V28.825H35.7365V27.825H34.7365ZM27.9415 27.825V26.825H26.9415V27.825H27.9415ZM27.9415 37.5H26.9415V38.5H27.9415V37.5ZM36.4915 37.5H37.4915V36.5H36.4915V37.5ZM36.4915 42V43H37.4915V42H36.4915ZM22.9915 42H21.9915V43H22.9915V42ZM22.9915 11.5H36.4915V9.5H22.9915V11.5ZM35.4915 10.5V15H37.4915V10.5H35.4915ZM36.4915 14H27.9415V16H36.4915V14ZM26.9415 15V23.325H28.9415V15H26.9415ZM27.9415 24.325H34.7365V22.325H27.9415V24.325ZM33.7365 23.325V27.825H35.7365V23.325H33.7365ZM34.7365 26.825H27.9415V28.825H34.7365V26.825ZM26.9415 27.825V37.5H28.9415V27.825H26.9415ZM27.9415 38.5H36.4915V36.5H27.9415V38.5ZM35.4915 37.5V42H37.4915V37.5H35.4915ZM36.4915 41H22.9915V43H36.4915V41ZM23.9915 42V10.5H21.9915V42H23.9915ZM45.4141 10.5V9.5H44.5638L44.4271 10.3393L45.4141 10.5ZM52.1191 10.5L53.1061 10.3393L52.9695 9.5H52.1191V10.5ZM57.2491 42V43H58.4252L58.2361 41.8393L57.2491 42ZM52.2991 42L51.3093 42.1424L51.4327 43H52.2991V42ZM51.3991 35.745L52.3889 35.6026L50.3991 35.745H51.3991ZM51.3991 35.835V36.835H52.3991V35.835H51.3991ZM45.7741 35.835V34.835H44.9095L44.7846 35.6905L45.7741 35.835ZM44.8741 42V43H45.7388L45.8637 42.1445L44.8741 42ZM40.2841 42L39.2971 41.8393L39.1081 43H40.2841V42ZM50.8141 31.56V32.56H51.9657L51.8043 31.4198L50.8141 31.56ZM48.6091 15.99L49.5993 15.8498L49.4775 14.99H48.6091V15.99ZM48.5191 15.99V14.99H47.6483L47.5286 15.8526L48.5191 15.99ZM46.3591 31.56L45.3686 31.4226L45.2108 32.56H46.3591V31.56ZM45.4141 11.5H52.1191V9.5H45.4141V11.5ZM51.1321 10.6607L56.2621 42.1607L58.2361 41.8393L53.1061 10.3393L51.1321 10.6607ZM57.2491 41H52.2991V43H57.2491V41ZM53.2889 41.8576L52.3889 35.6026L50.4093 35.8874L51.3093 42.1424L53.2889 41.8576ZM50.3991 35.745V35.835H52.3991V35.745H50.3991ZM51.3991 34.835H45.7741V36.835H51.3991V34.835ZM44.7846 35.6905L43.8846 41.8555L45.8637 42.1445L46.7637 35.9795L44.7846 35.6905ZM44.8741 41H40.2841V43H44.8741V41ZM41.2711 42.1607L46.4011 10.6607L44.4271 10.3393L39.2971 41.8393L41.2711 42.1607ZM51.8043 31.4198L49.5993 15.8498L47.619 16.1302L49.824 31.7002L51.8043 31.4198ZM48.6091 14.99H48.5191V16.99H48.6091V14.99ZM47.5286 15.8526L45.3686 31.4226L47.3497 31.6974L49.5097 16.1274L47.5286 15.8526ZM46.3591 32.56H50.8141V30.56H46.3591V32.56ZM61.9007 10.5V9.5H60.9007V10.5H61.9007ZM66.8507 10.5H67.8507V9.5H66.8507V10.5ZM66.8507 37.5H65.8507V38.5H66.8507V37.5ZM74.9957 37.5H75.9957V36.5H74.9957V37.5ZM74.9957 42V43H75.9957V42H74.9957ZM61.9007 42H60.9007V43H61.9007V42ZM61.9007 11.5H66.8507V9.5H61.9007V11.5ZM65.8507 10.5V37.5H67.8507V10.5H65.8507ZM66.8507 38.5H74.9957V36.5H66.8507V38.5ZM73.9957 37.5V42H75.9957V37.5H73.9957ZM74.9957 41H61.9007V43H74.9957V41ZM62.9007 42V10.5H60.9007V42H62.9007ZM79.9738 15H80.9738V14H79.9738V15ZM74.7988 15H73.7988V16H74.7988V15ZM74.7988 10.5V9.5H73.7988V10.5H74.7988ZM90.0988 10.5H91.0988V9.5H90.0988V10.5ZM90.0988 15V16H91.0988V15H90.0988ZM84.9238 15V14H83.9238V15H84.9238ZM84.9238 42V43H85.9238V42H84.9238ZM79.9738 42H78.9738V43H79.9738V42ZM79.9738 14H74.7988V16H79.9738V14ZM75.7988 15V10.5H73.7988V15H75.7988ZM74.7988 11.5H90.0988V9.5H74.7988V11.5ZM89.0988 10.5V15H91.0988V10.5H89.0988ZM90.0988 14H84.9238V16H90.0988V14ZM83.9238 15V42H85.9238V15H83.9238ZM84.9238 41H79.9738V43H84.9238V41ZM80.9738 42V15H78.9738V42H80.9738ZM94.7454 10.5V9.5H93.7454V10.5H94.7454ZM99.6954 10.5H100.695V9.5H99.6954V10.5ZM99.6954 23.325H98.6954V24.325H99.6954V23.325ZM105.005 23.325V24.325H106.005V23.325H105.005ZM105.005 10.5V9.5H104.005V10.5H105.005ZM109.955 10.5H110.955V9.5H109.955V10.5ZM109.955 42V43H110.955V42H109.955ZM105.005 42H104.005V43H105.005V42ZM105.005 27.825H106.005V26.825H105.005V27.825ZM99.6954 27.825V26.825H98.6954V27.825H99.6954ZM99.6954 42V43H100.695V42H99.6954ZM94.7454 42H93.7454V43H94.7454V42ZM94.7454 11.5H99.6954V9.5H94.7454V11.5ZM98.6954 10.5V23.325H100.695V10.5H98.6954ZM99.6954 24.325H105.005V22.325H99.6954V24.325ZM106.005 23.325V10.5H104.005V23.325H106.005ZM105.005 11.5H109.955V9.5H105.005V11.5ZM108.955 10.5V42H110.955V10.5H108.955ZM109.955 41H105.005V43H109.955V41ZM106.005 42V27.825H104.005V42H106.005ZM105.005 26.825H99.6954V28.825H105.005V26.825ZM98.6954 27.825V42H100.695V27.825H98.6954ZM99.6954 41H94.7454V43H99.6954V41ZM95.7454 42V10.5H93.7454V42H95.7454ZM115.892 10.5V9.5H114.892V10.5H115.892ZM120.842 10.5H121.842V9.5H120.842V10.5ZM120.842 42V43H121.842V42H120.842ZM115.892 42H114.892V43H115.892V42ZM115.892 11.5H120.842V9.5H115.892V11.5ZM119.842 10.5V42H121.842V10.5H119.842ZM120.842 41H115.892V43H120.842V41ZM116.892 42V10.5H114.892V42H116.892ZM126.799 10.5V9.5H125.799V10.5H126.799ZM140.299 10.5H141.299V9.5H140.299V10.5ZM140.299 15V16H141.299V15H140.299ZM131.749 15V14H130.749V15H131.749ZM131.749 23.325H130.749V24.325H131.749V23.325ZM138.544 23.325H139.544V22.325H138.544V23.325ZM138.544 27.825V28.825H139.544V27.825H138.544ZM131.749 27.825V26.825H130.749V27.825H131.749ZM131.749 37.5H130.749V38.5H131.749V37.5ZM140.299 37.5H141.299V36.5H140.299V37.5ZM140.299 42V43H141.299V42H140.299ZM126.799 42H125.799V43H126.799V42ZM126.799 11.5H140.299V9.5H126.799V11.5ZM139.299 10.5V15H141.299V10.5H139.299ZM140.299 14H131.749V16H140.299V14ZM130.749 15V23.325H132.749V15H130.749ZM131.749 24.325H138.544V22.325H131.749V24.325ZM137.544 23.325V27.825H139.544V23.325H137.544ZM138.544 26.825H131.749V28.825H138.544V26.825ZM130.749 27.825V37.5H132.749V27.825H130.749ZM131.749 38.5H140.299V36.5H131.749V38.5ZM139.299 37.5V42H141.299V37.5H139.299ZM140.299 41H126.799V43H140.299V41ZM127.799 42V10.5H125.799V42H127.799ZM146.475 40.425L145.728 41.0904L145.735 41.0985L146.475 40.425ZM144.63 32.73V31.73H143.63V32.73H144.63ZM149.31 32.73H150.31V31.73H149.31V32.73ZM153.765 37.23L153.015 36.5684L153.012 36.5715L153.765 37.23ZM153.54 31.335L152.678 31.8421L152.684 31.8533L153.54 31.335ZM150.21 27.69L149.548 28.4399L149.553 28.4443L150.21 27.69ZM145.935 22.83L145.059 23.3126L145.063 23.3203L145.935 22.83ZM146.61 12.12L147.341 12.8024L147.348 12.7943L146.61 12.12ZM157.455 12.12L156.7 12.7762L156.708 12.7849L156.715 12.7935L157.455 12.12ZM159.3 19.275V20.275H160.3V19.275H159.3ZM154.62 19.275H153.62V20.275H154.62V19.275ZM153.99 15.315L153.218 15.9507L153.227 15.9622L153.237 15.9735L153.99 15.315ZM150.57 20.76L149.714 21.2783L149.72 21.2877L149.726 21.2969L150.57 20.76ZM153.945 24.36L153.288 25.1143L153.288 25.1146L153.945 24.36ZM158.22 29.265L157.336 29.7337L158.22 29.265ZM157.455 40.38L156.724 39.6971L156.716 39.7057L157.455 40.38ZM151.92 41.45C149.708 41.45 148.2 40.8334 147.214 39.7515L145.735 41.0985C147.21 42.7166 149.331 43.45 151.92 43.45V41.45ZM147.221 39.7596C146.207 38.6222 145.63 36.928 145.63 34.53H143.63C143.63 37.232 144.282 39.4678 145.728 41.0904L147.221 39.7596ZM145.63 34.53V32.73H143.63V34.53H145.63ZM144.63 33.73H149.31V31.73H144.63V33.73ZM148.31 32.73V34.89H150.31V32.73H148.31ZM148.31 34.89C148.31 36.0253 148.544 37.0631 149.185 37.8274C149.854 38.6255 150.815 38.95 151.875 38.95V36.95C151.225 36.95 150.903 36.7645 150.717 36.5426C150.503 36.2869 150.31 35.7947 150.31 34.89H148.31ZM151.875 38.95C152.906 38.95 153.852 38.6491 154.517 37.8885L153.012 36.5715C152.838 36.7709 152.523 36.95 151.875 36.95V38.95ZM154.514 37.8916C155.201 37.1139 155.44 36.0093 155.44 34.8H153.44C153.44 35.8107 153.229 36.3261 153.015 36.5684L154.514 37.8916ZM155.44 34.8C155.44 33.3234 155.102 31.984 154.395 30.8167L152.684 31.8533C153.177 32.666 153.44 33.6366 153.44 34.8H155.44ZM154.402 30.828C153.719 29.6681 152.513 28.3687 150.866 26.9357L149.553 28.4443C151.147 29.8313 152.16 30.9619 152.678 31.842L154.402 30.828ZM150.871 26.9402C148.868 25.1728 147.537 23.6393 146.806 22.3397L145.063 23.3203C145.952 24.9007 147.471 26.6072 149.548 28.4398L150.871 26.9402ZM146.81 22.3474C146.089 21.0383 145.72 19.5569 145.72 17.88H143.72C143.72 19.8631 144.16 21.6817 145.059 23.3126L146.81 22.3474ZM145.72 17.88C145.72 15.5534 146.306 13.9105 147.341 12.8023L145.879 11.4377C144.393 13.0295 143.72 15.2266 143.72 17.88H145.72ZM147.348 12.7943C148.368 11.6771 149.896 11.05 152.1 11.05V9.05C149.504 9.05 147.371 9.8029 145.871 11.4457L147.348 12.7943ZM152.1 11.05C154.272 11.05 155.743 11.6752 156.7 12.7762L158.209 11.4638C156.767 9.80476 154.668 9.05 152.1 9.05V11.05ZM156.715 12.7935C157.721 13.8974 158.3 15.5702 158.3 17.97H160.3C160.3 15.2698 159.648 13.0426 158.194 11.4465L156.715 12.7935ZM158.3 17.97V19.275H160.3V17.97H158.3ZM159.3 18.275H154.62V20.275H159.3V18.275ZM155.62 19.275V17.655H153.62V19.275H155.62ZM155.62 17.655C155.62 16.4875 155.4 15.4087 154.742 14.6565L153.237 15.9735C153.419 16.1813 153.62 16.6625 153.62 17.655H155.62ZM154.762 14.6793C154.109 13.8869 153.179 13.55 152.145 13.55V15.55C152.73 15.55 153.03 15.7231 153.218 15.9507L154.762 14.6793ZM152.145 13.55C151.108 13.55 150.167 13.8753 149.515 14.6693C148.895 15.4254 148.67 16.4485 148.67 17.565H150.67C150.67 16.6715 150.857 16.1871 151.061 15.9382C151.235 15.7272 151.532 15.55 152.145 15.55V13.55ZM148.67 17.565C148.67 18.8907 149.021 20.1346 149.714 21.2783L151.425 20.2417C150.918 19.4054 150.67 18.5193 150.67 17.565H148.67ZM149.726 21.2969C150.434 22.4092 151.645 23.6843 153.288 25.1143L154.601 23.6057C153.004 22.2157 151.965 21.0908 151.413 20.2231L149.726 21.2969ZM153.288 25.1146C155.318 26.8794 156.639 28.4199 157.336 29.7337L159.103 28.7963C158.24 27.1701 156.711 25.4406 154.601 23.6054L153.288 25.1146ZM157.336 29.7337C158.026 31.0343 158.39 32.5925 158.39 34.44H160.39C160.39 32.3275 159.973 30.4357 159.103 28.7963L157.336 29.7337ZM158.39 34.44C158.39 36.8605 157.786 38.5612 156.724 39.6971L158.185 41.0629C159.703 39.4388 160.39 37.1795 160.39 34.44H158.39ZM156.716 39.7057C155.698 40.8204 154.158 41.45 151.92 41.45V43.45C154.541 43.45 156.691 42.6996 158.193 41.0543L156.716 39.7057ZM168.348 15H169.348V14H168.348V15ZM163.173 15H162.173V16H163.173V15ZM163.173 10.5V9.5H162.173V10.5H163.173ZM178.473 10.5H179.473V9.5H178.473V10.5ZM178.473 15V16H179.473V15H178.473ZM173.298 15V14H172.298V15H173.298ZM173.298 42V43H174.298V42H173.298ZM168.348 42H167.348V43H168.348V42ZM168.348 14H163.173V16H168.348V14ZM164.173 15V10.5H162.173V15H164.173ZM163.173 11.5H178.473V9.5H163.173V11.5ZM177.473 10.5V15H179.473V10.5H177.473ZM178.473 14H173.298V16H178.473V14ZM172.298 15V42H174.298V15H172.298ZM173.298 41H168.348V43H173.298V41ZM169.348 42V15H167.348V42H169.348Z" fill="#248900"/>
<path opacity="0.4" d="M2.845 9.5H7.795V22.325H13.105V9.5H18.055V41H13.105V26.825H7.795V41H2.845V9.5ZM23.9915 9.5H37.4915V14H28.9415V22.325H35.7365V26.825H28.9415V36.5H37.4915V41H23.9915V9.5ZM46.4141 9.5H53.1191L58.2491 41H53.2991L52.3991 34.745V34.835H46.7741L45.8741 41H41.2841L46.4141 9.5ZM51.8141 30.56L49.6091 14.99H49.5191L47.3591 30.56H51.8141ZM62.9007 9.5H67.8507V36.5H75.9957V41H62.9007V9.5ZM80.9738 14H75.7988V9.5H91.0988V14H85.9238V41H80.9738V14ZM95.7454 9.5H100.695V22.325H106.005V9.5H110.955V41H106.005V26.825H100.695V41H95.7454V9.5ZM116.892 9.5H121.842V41H116.892V9.5ZM127.799 9.5H141.299V14H132.749V22.325H139.544V26.825H132.749V36.5H141.299V41H127.799V9.5ZM152.92 41.45C150.52 41.45 148.705 40.775 147.475 39.425C146.245 38.045 145.63 36.08 145.63 33.53V31.73H150.31V33.89C150.31 35.93 151.165 36.95 152.875 36.95C153.715 36.95 154.345 36.71 154.765 36.23C155.215 35.72 155.44 34.91 155.44 33.8C155.44 32.48 155.14 31.325 154.54 30.335C153.94 29.315 152.83 28.1 151.21 26.69C149.17 24.89 147.745 23.27 146.935 21.83C146.125 20.36 145.72 18.71 145.72 16.88C145.72 14.39 146.35 12.47 147.61 11.12C148.87 9.74 150.7 9.05 153.1 9.05C155.47 9.05 157.255 9.74 158.455 11.12C159.685 12.47 160.3 14.42 160.3 16.97V18.275H155.62V16.655C155.62 15.575 155.41 14.795 154.99 14.315C154.57 13.805 153.955 13.55 153.145 13.55C151.495 13.55 150.67 14.555 150.67 16.565C150.67 17.705 150.97 18.77 151.57 19.76C152.2 20.75 153.325 21.95 154.945 23.36C157.015 25.16 158.44 26.795 159.22 28.265C160 29.735 160.39 31.46 160.39 33.44C160.39 36.02 159.745 38 158.455 39.38C157.195 40.76 155.35 41.45 152.92 41.45ZM169.348 14H164.173V9.5H179.473V14H174.298V41H169.348V14Z" fill="#248900"/>
</svg>
