<svg viewBox="0 0 29 29" fill="none" xmlns="http://www.w3.org/2000/svg">
  <path fill-rule="evenodd" clip-rule="evenodd" d="M10.523 25.778c-.09 0-.19.078-.19.209 0 .13.1.209.19.209.091 0 .19-.08.19-.21s-.099-.208-.19-.208Zm-2.19.209c0-1.206.966-2.21 2.19-2.21 1.225 0 2.19 1.004 2.19 2.21 0 1.205-.965 2.209-2.19 2.209-1.224 0-2.19-1.004-2.19-2.21ZM23.62 25.778c-.091 0-.191.079-.191.209s.1.209.19.209.19-.08.19-.21-.1-.208-.19-.208Zm-2.191.209c0-1.206.966-2.21 2.19-2.21s2.19 1.004 2.19 2.21c0 1.205-.966 2.209-2.19 2.209s-2.19-1.004-2.19-2.21ZM0 1.804a1 1 0 0 1 1-1h4.762a1 1 0 0 1 .981.807L7.775 6.85H27.19a1 1 0 0 1 .983 1.184l-1.906 10.152a3.425 3.425 0 0 1-1.19 1.995 3.358 3.358 0 0 1-2.181.76H11.342a3.358 3.358 0 0 1-2.18-.76 3.425 3.425 0 0 1-1.19-1.994L5.981 8.09A.997.997 0 0 1 5.962 8L4.94 2.804H1a1 1 0 0 1-1-1ZM8.17 8.85l1.764 8.952c.064.33.24.624.494.83.252.207.566.316.886.31h11.61c.32.006.634-.102.886-.31.253-.205.429-.498.494-.826v-.004l1.681-8.952H8.17Z" fill="#1C6900"/>
</svg>