<svg viewBox="0 0 181 55" fill="none" xmlns="http://www.w3.org/2000/svg">
  <path d="M1.845 10.5h4.95v12.825h5.31V10.5h4.95V42h-4.95V27.825h-5.31V42h-4.95V10.5Zm21.146 0h13.5V15h-8.55v8.325h6.796v4.5H27.94V37.5h8.55V42h-13.5V10.5Zm22.423 0h6.705L57.25 42H52.3l-.9-6.255v.09h-5.625l-.9 6.165h-4.59l5.13-31.5Zm5.4 21.06L48.61 15.99h-.09l-2.16 15.57h4.455ZM61.901 10.5h4.95v27h8.145V42H61.9V10.5ZM79.974 15h-5.175v-4.5h15.3V15h-5.175v27h-4.95V15Zm14.771-4.5h4.95v12.825h5.31V10.5h4.95V42h-4.95V27.825h-5.31V42h-4.95V10.5Zm21.147 0h4.95V42h-4.95V10.5Zm10.907 0h13.5V15h-8.55v8.325h6.795v4.5h-6.795V37.5h8.55V42h-13.5V10.5Zm25.121 31.95c-2.4 0-4.215-.675-5.445-2.025-1.23-1.38-1.845-3.345-1.845-5.895v-1.8h4.68v2.16c0 2.04.855 3.06 2.565 3.06.84 0 1.47-.24 1.89-.72.45-.51.675-1.32.675-2.43 0-1.32-.3-2.475-.9-3.465-.6-1.02-1.71-2.235-3.33-3.645-2.04-1.8-3.465-3.42-4.275-4.86-.81-1.47-1.215-3.12-1.215-4.95 0-2.49.63-4.41 1.89-5.76 1.26-1.38 3.09-2.07 5.49-2.07 2.37 0 4.155.69 5.355 2.07 1.23 1.35 1.845 3.3 1.845 5.85v1.305h-4.68v-1.62c0-1.08-.21-1.86-.63-2.34-.42-.51-1.035-.765-1.845-.765-1.65 0-2.475 1.005-2.475 3.015 0 1.14.3 2.205.9 3.195.63.99 1.755 2.19 3.375 3.6 2.07 1.8 3.495 3.435 4.275 4.905.78 1.47 1.17 3.195 1.17 5.175 0 2.58-.645 4.56-1.935 5.94-1.26 1.38-3.105 2.07-5.535 2.07ZM168.348 15h-5.175v-4.5h15.3V15h-5.175v27h-4.95V15Z" fill="#fff"/>
  <path d="M1.845 10.5v-1h-1v1h1Zm4.95 0h1v-1h-1v1Zm0 12.825h-1v1h1v-1Zm5.31 0v1h1v-1h-1Zm0-12.825v-1h-1v1h1Zm4.95 0h1v-1h-1v1Zm0 31.5v1h1v-1h-1Zm-4.95 0h-1v1h1v-1Zm0-14.175h1v-1h-1v1Zm-5.31 0v-1h-1v1h1Zm0 14.175v1h1v-1h-1Zm-4.95 0h-1v1h1v-1Zm0-30.5h4.95v-2h-4.95v2Zm3.95-1v12.825h2V10.5h-2Zm1 13.825h5.31v-2h-5.31v2Zm6.31-1V10.5h-2v12.825h2Zm-1-11.825h4.95v-2h-4.95v2Zm3.95-1V42h2V10.5h-2Zm1 30.5h-4.95v2h4.95v-2Zm-3.95 1V27.825h-2V42h2Zm-1-15.175h-5.31v2h5.31v-2Zm-6.31 1V42h2V27.825h-2Zm1 13.175h-4.95v2h4.95v-2Zm-3.95 1V10.5h-2V42h2Zm20.146-31.5v-1h-1v1h1Zm13.5 0h1v-1h-1v1Zm0 4.5v1h1v-1h-1Zm-8.55 0v-1h-1v1h1Zm0 8.325h-1v1h1v-1Zm6.796 0h1v-1h-1v1Zm0 4.5v1h1v-1h-1Zm-6.796 0v-1h-1v1h1Zm0 9.675h-1v1h1v-1Zm8.55 0h1v-1h-1v1Zm0 4.5v1h1v-1h-1Zm-13.5 0h-1v1h1v-1Zm0-30.5h13.5v-2h-13.5v2Zm12.5-1V15h2v-4.5h-2Zm1 3.5h-8.55v2h8.55v-2Zm-9.55 1v8.325h2V15h-2Zm1 9.325h6.796v-2H27.94v2Zm5.796-1v4.5h2v-4.5h-2Zm1 3.5H27.94v2h6.796v-2Zm-7.796 1V37.5h2v-9.675h-2Zm1 10.675h8.55v-2h-8.55v2Zm7.55-1V42h2v-4.5h-2Zm1 3.5h-13.5v2h13.5v-2Zm-12.5 1V10.5h-2V42h2Zm21.423-31.5v-1h-.85l-.137.84.987.16Zm6.705 0 .987-.16-.137-.84h-.85v1ZM57.25 42v1h1.176l-.189-1.16-.987.16Zm-4.95 0-.99.142.124.858h.866v-1Zm-.9-6.255.99-.142-1.99.142h1Zm0 .09v1h1v-1h-1Zm-5.625 0v-1h-.864l-.125.855.99.145Zm-.9 6.165v1h.865l.125-.855-.99-.145Zm-4.59 0-.987-.16-.189 1.16h1.176v-1Zm10.53-10.44v1h1.152l-.162-1.14-.99.14ZM48.61 15.99l.99-.14-.121-.86h-.869v1Zm-.09 0v-1h-.87l-.12.863.99.137Zm-2.16 15.57-.99-.137-.158 1.137h1.148v-1Zm-.945-20.06h6.705v-2h-6.705v2Zm5.718-.84 5.13 31.5 1.974-.32-5.13-31.5-1.974.32ZM57.25 41H52.3v2h4.95v-2Zm-3.96.858-.9-6.255-1.98.284.9 6.255 1.98-.284Zm-2.89-6.113v.09h2v-.09h-2Zm1-.91h-5.625v2H51.4v-2Zm-6.614.855-.9 6.166 1.979.288.9-6.164-1.98-.29Zm.09 5.31h-4.59v2h4.59v-2Zm-3.604 1.16 5.13-31.5-1.974-.32-5.13 31.5 1.974.32Zm10.533-10.74L49.6 15.85l-1.98.28 2.205 15.57 1.98-.28ZM48.61 14.99h-.09v2h.09v-2Zm-1.08.863-2.16 15.57 1.98.274 2.16-15.57-1.98-.274Zm-1.17 16.707h4.455v-2H46.36v2ZM61.901 10.5v-1h-1v1h1Zm4.95 0h1v-1h-1v1Zm0 27h-1v1h1v-1Zm8.145 0h1v-1h-1v1Zm0 4.5v1h1v-1h-1ZM61.9 42h-1v1h1v-1Zm0-30.5h4.95v-2H61.9v2Zm3.95-1v27h2v-27h-2Zm1 28h8.145v-2H66.85v2Zm7.145-1V42h2v-4.5h-2Zm1 3.5H61.9v2h13.095v-2ZM62.9 42V10.5h-2V42h2Zm17.073-27h1v-1h-1v1Zm-5.175 0h-1v1h1v-1Zm0-4.5v-1h-1v1h1Zm15.3 0h1v-1h-1v1Zm0 4.5v1h1v-1h-1Zm-5.175 0v-1h-1v1h1Zm0 27v1h1v-1h-1Zm-4.95 0h-1v1h1v-1Zm0-28h-5.175v2h5.175v-2Zm-4.175 1v-4.5h-2V15h2Zm-1-3.5h15.3v-2h-15.3v2Zm14.3-1V15h2v-4.5h-2Zm1 3.5h-5.175v2h5.175v-2Zm-6.175 1v27h2V15h-2Zm1 26h-4.95v2h4.95v-2Zm-3.95 1V15h-2v27h2Zm13.771-31.5v-1h-1v1h1Zm4.95 0h1v-1h-1v1Zm0 12.825h-1v1h1v-1Zm5.31 0v1h1v-1h-1Zm0-12.825v-1h-1v1h1Zm4.95 0h1v-1h-1v1Zm0 31.5v1h1v-1h-1Zm-4.95 0h-1v1h1v-1Zm0-14.175h1v-1h-1v1Zm-5.31 0v-1h-1v1h1Zm0 14.175v1h1v-1h-1Zm-4.95 0h-1v1h1v-1Zm0-30.5h4.95v-2h-4.95v2Zm3.95-1v12.825h2V10.5h-2Zm1 13.825h5.31v-2h-5.31v2Zm6.31-1V10.5h-2v12.825h2Zm-1-11.825h4.95v-2h-4.95v2Zm3.95-1V42h2V10.5h-2Zm1 30.5h-4.95v2h4.95v-2Zm-3.95 1V27.825h-2V42h2Zm-1-15.175h-5.31v2h5.31v-2Zm-6.31 1V42h2V27.825h-2Zm1 13.175h-4.95v2h4.95v-2Zm-3.95 1V10.5h-2V42h2Zm20.147-31.5v-1h-1v1h1Zm4.95 0h1v-1h-1v1Zm0 31.5v1h1v-1h-1Zm-4.95 0h-1v1h1v-1Zm0-30.5h4.95v-2h-4.95v2Zm3.95-1V42h2V10.5h-2Zm1 30.5h-4.95v2h4.95v-2Zm-3.95 1V10.5h-2V42h2Zm9.907-31.5v-1h-1v1h1Zm13.5 0h1v-1h-1v1Zm0 4.5v1h1v-1h-1Zm-8.55 0v-1h-1v1h1Zm0 8.325h-1v1h1v-1Zm6.795 0h1v-1h-1v1Zm0 4.5v1h1v-1h-1Zm-6.795 0v-1h-1v1h1Zm0 9.675h-1v1h1v-1Zm8.55 0h1v-1h-1v1Zm0 4.5v1h1v-1h-1Zm-13.5 0h-1v1h1v-1Zm0-30.5h13.5v-2h-13.5v2Zm12.5-1V15h2v-4.5h-2Zm1 3.5h-8.55v2h8.55v-2Zm-9.55 1v8.325h2V15h-2Zm1 9.325h6.795v-2h-6.795v2Zm5.795-1v4.5h2v-4.5h-2Zm1 3.5h-6.795v2h6.795v-2Zm-7.795 1V37.5h2v-9.675h-2Zm1 10.675h8.55v-2h-8.55v2Zm7.55-1V42h2v-4.5h-2Zm1 3.5h-13.5v2h13.5v-2Zm-12.5 1V10.5h-2V42h2Zm18.676-1.575-.747.665.007.008.74-.673Zm-1.845-7.695v-1h-1v1h1Zm4.68 0h1v-1h-1v1Zm4.455 4.5-.75-.662-.003.004.753.658Zm-.225-5.895-.862.507.006.011.856-.518Zm-3.33-3.645-.662.75.005.004.657-.754Zm-4.275-4.86-.876.483.004.007.872-.49Zm.675-10.71.731.682.007-.008-.738-.674Zm10.845 0-.755.656.008.009.007.008.74-.673Zm1.845 7.155v1h1v-1h-1Zm-4.68 0h-1v1h1v-1Zm-.63-3.96-.772.636.009.011.01.011.753-.658Zm-3.42 5.445-.856.518.006.01.006.009.844-.537Zm3.375 3.6-.657.754.657-.754Zm4.275 4.905-.884.469.884-.469Zm-.765 11.115-.731-.683-.008.009.739.674Zm-5.535 1.07c-2.212 0-3.72-.617-4.706-1.699l-1.479 1.348c1.475 1.618 3.596 2.351 6.185 2.351v-2Zm-4.699-1.69c-1.014-1.138-1.591-2.832-1.591-5.23h-2c0 2.702.652 4.938 2.098 6.56l1.493-1.33Zm-1.591-5.23v-1.8h-2v1.8h2Zm-1-.8h4.68v-2h-4.68v2Zm3.68-1v2.16h2v-2.16h-2Zm0 2.16c0 1.135.234 2.173.875 2.937.669.799 1.63 1.123 2.69 1.123v-2c-.65 0-.972-.186-1.158-.407-.214-.256-.407-.748-.407-1.653h-2Zm3.565 4.06c1.031 0 1.977-.3 2.642-1.062l-1.505-1.316c-.174.199-.489.378-1.137.378v2Zm2.639-1.058c.687-.778.926-1.883.926-3.092h-2c0 1.01-.211 1.526-.425 1.768l1.499 1.324Zm.926-3.092c0-1.477-.338-2.816-1.045-3.983l-1.711 1.036c.493.813.756 1.784.756 2.947h2Zm-1.038-3.972c-.683-1.16-1.889-2.46-3.536-3.892l-1.313 1.508c1.594 1.387 2.607 2.518 3.125 3.398l1.724-1.014Zm-3.531-3.888c-2.003-1.767-3.334-3.3-4.065-4.6l-1.743.98c.889 1.58 2.408 3.287 4.485 5.12l1.323-1.5Zm-4.061-4.593c-.721-1.309-1.09-2.79-1.09-4.467h-2c0 1.983.44 3.802 1.339 5.433l1.751-.966Zm-1.09-4.467c0-2.327.586-3.97 1.621-5.078l-1.462-1.364c-1.486 1.591-2.159 3.789-2.159 6.442h2Zm1.628-5.086c1.02-1.117 2.548-1.744 4.752-1.744v-2c-2.596 0-4.729.753-6.229 2.396l1.477 1.348Zm4.752-1.744c2.172 0 3.643.625 4.6 1.726l1.509-1.312c-1.442-1.66-3.541-2.414-6.109-2.414v2Zm4.615 1.743c1.006 1.104 1.585 2.777 1.585 5.177h2c0-2.7-.652-4.927-2.106-6.523l-1.479 1.347Zm1.585 5.177v1.305h2V17.97h-2Zm1 .305h-4.68v2h4.68v-2Zm-3.68 1v-1.62h-2v1.62h2Zm0-1.62c0-1.168-.22-2.246-.878-2.999l-1.505 1.317c.182.208.383.69.383 1.682h2Zm-.858-2.976c-.653-.792-1.583-1.129-2.617-1.129v2c.585 0 .885.173 1.073.4l1.544-1.27Zm-2.617-1.129c-1.037 0-1.978.325-2.63 1.12-.62.755-.845 1.778-.845 2.895h2c0-.893.187-1.378.391-1.627.174-.21.471-.388 1.084-.388v-2Zm-3.475 4.015c0 1.326.351 2.57 1.044 3.713l1.711-1.036a5.056 5.056 0 0 1-.755-2.677h-2Zm1.056 3.732c.708 1.112 1.919 2.387 3.562 3.817l1.313-1.508c-1.597-1.39-2.636-2.515-3.188-3.383l-1.687 1.074Zm3.562 3.818c2.03 1.764 3.351 3.305 4.048 4.619l1.767-.938c-.863-1.626-2.392-3.355-4.502-5.19l-1.313 1.509Zm4.048 4.619c.69 1.3 1.054 2.858 1.054 4.706h2c0-2.112-.417-4.004-1.287-5.644l-1.767.938Zm1.054 4.706c0 2.42-.604 4.121-1.666 5.257l1.461 1.366c1.518-1.624 2.205-3.884 2.205-6.623h-2Zm-1.674 5.266c-1.018 1.114-2.558 1.744-4.796 1.744v2c2.621 0 4.771-.75 6.273-2.396l-1.477-1.348ZM168.348 15h1v-1h-1v1Zm-5.175 0h-1v1h1v-1Zm0-4.5v-1h-1v1h1Zm15.3 0h1v-1h-1v1Zm0 4.5v1h1v-1h-1Zm-5.175 0v-1h-1v1h1Zm0 27v1h1v-1h-1Zm-4.95 0h-1v1h1v-1Zm0-28h-5.175v2h5.175v-2Zm-4.175 1v-4.5h-2V15h2Zm-1-3.5h15.3v-2h-15.3v2Zm14.3-1V15h2v-4.5h-2Zm1 3.5h-5.175v2h5.175v-2Zm-6.175 1v27h2V15h-2Zm1 26h-4.95v2h4.95v-2Zm-3.95 1V15h-2v27h2Z" fill="#248900"/>
  <path opacity=".4" d="M2.845 9.5h4.95v12.825h5.31V9.5h4.95V41h-4.95V26.825h-5.31V41h-4.95V9.5Zm21.146 0h13.5V14h-8.55v8.325h6.796v4.5H28.94V36.5h8.55V41h-13.5V9.5Zm22.423 0h6.705L58.25 41H53.3l-.9-6.255v.09h-5.625l-.9 6.165h-4.59l5.13-31.5Zm5.4 21.06L49.61 14.99h-.09l-2.16 15.57h4.455ZM62.901 9.5h4.95v27h8.145V41H62.9V9.5ZM80.974 14h-5.175V9.5h15.3V14h-5.175v27h-4.95V14Zm14.771-4.5h4.95v12.825h5.31V9.5h4.95V41h-4.95V26.825h-5.31V41h-4.95V9.5Zm21.147 0h4.95V41h-4.95V9.5Zm10.907 0h13.5V14h-8.55v8.325h6.795v4.5h-6.795V36.5h8.55V41h-13.5V9.5Zm25.121 31.95c-2.4 0-4.215-.675-5.445-2.025-1.23-1.38-1.845-3.345-1.845-5.895v-1.8h4.68v2.16c0 2.04.855 3.06 2.565 3.06.84 0 1.47-.24 1.89-.72.45-.51.675-1.32.675-2.43 0-1.32-.3-2.475-.9-3.465-.6-1.02-1.71-2.235-3.33-3.645-2.04-1.8-3.465-3.42-4.275-4.86-.81-1.47-1.215-3.12-1.215-4.95 0-2.49.63-4.41 1.89-5.76 1.26-1.38 3.09-2.07 5.49-2.07 2.37 0 4.155.69 5.355 2.07 1.23 1.35 1.845 3.3 1.845 5.85v1.305h-4.68v-1.62c0-1.08-.21-1.86-.63-2.34-.42-.51-1.035-.765-1.845-.765-1.65 0-2.475 1.005-2.475 3.015 0 1.14.3 2.205.9 3.195.63.99 1.755 2.19 3.375 3.6 2.07 1.8 3.495 3.435 4.275 4.905.78 1.47 1.17 3.195 1.17 5.175 0 2.58-.645 4.56-1.935 5.94-1.26 1.38-3.105 2.07-5.535 2.07ZM169.348 14h-5.175V9.5h15.3V14h-5.175v27h-4.95V14Z" fill="#248900"/>
</svg>