<svg xmlns="http://www.w3.org/2000/svg">
  <defs>
    <symbol id="icon-cart" viewBox="0 0 32 32">
      <path d="M11.612 28.445c-.099 0-.21.086-.21.231 0 .143.11.231.21.231.1 0 .21-.088.21-.232s-.109-.23-.21-.23zm-2.417.23c0-1.331 1.066-2.439 2.417-2.439 1.352 0 2.417 1.108 2.417 2.439 0 1.33-1.065 2.438-2.417 2.438-1.351 0-2.417-1.108-2.417-2.439zm16.867-.23c.099 0 .21.086.21.23s-.11.232-.21.232c-.099 0-.21-.087-.21-.231s.11-.231.211-.231zm-2.416.229c0 1.331 1.066 2.439 2.417 2.439s2.417-1.108 2.417-2.438c0-1.331-1.066-2.439-2.417-2.439s-2.417 1.108-2.417 2.439zM0 1.991C0 1.382.494.888 1.103.888h5.255c.534 0 .979.379 1.081.883l.001.007 1.139 5.781h21.423a1.103 1.103 0 0 1 1.083 1.313l.001-.007-2.103 11.202a3.787 3.787 0 0 1-1.307 2.196l-.006.005a3.686 3.686 0 0 1-2.348.839h-.061.003H12.458a3.696 3.696 0 0 1-2.355-.844l.006.005A3.785 3.785 0 0 1 8.8 20.092l-.004-.024L6.599 8.926a1.047 1.047 0 0 1-.02-.093l-.001-.006L5.45 3.093H1.102A1.103 1.103 0 0 1-.001 1.99zm9.015 7.775 1.946 9.878c.071.364.265.689.545.916.278.228.625.349.978.342h12.811c.353.007.7-.113.978-.342.279-.226.473-.55.545-.911v-.004l1.855-9.878H9.015z"/>
    </symbol>
  </defs>
</svg>